<?xml version="1.0" standalone="no"?>
<!DOCTYPE svg PUBLIC "-//W3C//DTD SVG 20010904//EN"
 "http://www.w3.org/TR/2001/REC-SVG-20010904/DTD/svg10.dtd">
<svg version="1.0" xmlns="http://www.w3.org/2000/svg"
 width="272.000000pt" height="272.000000pt" viewBox="0 0 272.000000 272.000000"
 preserveAspectRatio="xMidYMid meet">
<metadata>
Created by potrace 1.14, written by Peter Selinger 2001-2017
</metadata>
<g transform="translate(0.000000,272.000000) scale(0.100000,-0.100000)"
fill="#000000" stroke="none">
<path d="M1220 2714 c-474 -61 -859 -324 -1068 -731 -106 -206 -146 -378 -146
-623 0 -245 40 -417 146 -623 189 -367 519 -618 936 -709 129 -29 394 -31 525
-5 554 111 973 530 1084 1084 24 121 24 385 0 506 -67 337 -249 628 -517 831
-160 121 -346 206 -538 246 -95 20 -342 34 -422 24z m952 -729 c-12 -152 -102
-274 -237 -321 -44 -15 -109 -18 -555 -23 l-505 -6 -53 -29 c-50 -28 -117 -92
-154 -146 -17 -24 -17 -23 -17 65 -1 196 35 318 115 399 50 50 132 88 209 96
33 4 316 7 630 6 l570 -1 -3 -40z m2 -467 c-21 -130 -53 -197 -124 -261 -91
-82 -78 -80 -650 -87 -498 -5 -506 -5 -554 -28 -65 -30 -125 -80 -156 -131
-14 -22 -29 -41 -34 -41 -17 0 1 260 23 330 37 117 137 214 245 239 23 5 314
9 648 10 l608 1 -6 -32z m-684 -476 c0 -35 -26 -126 -50 -172 -27 -52 -88
-110 -146 -136 -72 -34 -165 -43 -418 -44 l-219 0 6 59 c11 128 98 249 213
296 58 24 66 25 337 25 l277 0 0 -28z"/>
</g>
</svg>
