<svg width="30" height="30" viewBox="0 0 30 30" fill="none" xmlns="http://www.w3.org/2000/svg">
<rect width="30" height="30" rx="5" fill="white"/>
<g clip-path="url(#clip0_1205_154)">
<path d="M21.3912 9.15751C20.3077 8.66672 19.1458 8.30513 17.9309 8.09804C17.9088 8.09404 17.8867 8.10403 17.8753 8.12401C17.7259 8.38637 17.5604 8.72865 17.4444 8.99768C16.1378 8.80457 14.8378 8.80457 13.558 8.99768C13.442 8.72267 13.2705 8.38637 13.1204 8.12401C13.109 8.10469 13.0869 8.09471 13.0648 8.09804C11.8506 8.30447 10.6887 8.66606 9.6045 9.15751C9.59511 9.1615 9.58706 9.16817 9.58173 9.17682C7.37782 12.4272 6.77408 15.5976 7.07025 18.7287C7.07159 18.744 7.0803 18.7587 7.09237 18.768C8.54644 19.8221 9.95496 20.4621 11.3373 20.8863C11.3594 20.8929 11.3829 20.885 11.397 20.867C11.724 20.4261 12.0155 19.9613 12.2654 19.4725C12.2801 19.4439 12.266 19.4099 12.2359 19.3986C11.7736 19.2255 11.3333 19.0144 10.9098 18.7747C10.8763 18.7554 10.8736 18.7081 10.9044 18.6854C10.9936 18.6195 11.0827 18.5509 11.1678 18.4817C11.1832 18.469 11.2047 18.4663 11.2228 18.4743C14.0049 19.7283 17.0169 19.7283 19.7663 18.4743C19.7844 18.4657 19.8058 18.4683 19.8219 18.481C19.907 18.5502 19.9961 18.6195 20.0859 18.6854C20.1167 18.7081 20.1147 18.7554 20.0812 18.7747C19.6577 19.0191 19.2175 19.2255 18.7544 19.398C18.7243 19.4093 18.7109 19.4439 18.7256 19.4725C18.9809 19.9607 19.2724 20.4255 19.5934 20.8663C19.6068 20.885 19.6309 20.8929 19.653 20.8863C21.0421 20.4621 22.4506 19.8221 23.9047 18.768C23.9174 18.7587 23.9255 18.7447 23.9268 18.7294C24.2813 15.1095 23.3331 11.965 21.4133 9.17748C21.4086 9.16817 21.4006 9.1615 21.3912 9.15751ZM12.6808 16.8222C11.8432 16.8222 11.1531 16.0631 11.1531 15.1308C11.1531 14.1985 11.8298 13.4394 12.6808 13.4394C13.5385 13.4394 14.222 14.2051 14.2086 15.1308C14.2086 16.0631 13.5318 16.8222 12.6808 16.8222ZM18.3296 16.8222C17.492 16.8222 16.8018 16.0631 16.8018 15.1308C16.8018 14.1985 17.4786 13.4394 18.3296 13.4394C19.1873 13.4394 19.8708 14.2051 19.8574 15.1308C19.8574 16.0631 19.1873 16.8222 18.3296 16.8222Z" fill="#11131C"/>
</g>
<defs>
<clipPath id="clip0_1205_154">
<rect width="17" height="13" fill="white" transform="translate(7 8)"/>
</clipPath>
</defs>
</svg>
