<svg width="190" height="30" viewBox="0 0 190 30" fill="none" xmlns="http://www.w3.org/2000/svg">
<path d="M42 29.5669H48.196V17.3532H60.1159V12.1992H48.196V5.15399H61.4037V0H42V29.5669Z" fill="white"/>
<path d="M73.8602 30C79.2978 30 82.9611 27.3292 83.8196 23.2146L78.1817 22.8393C77.5664 24.5284 75.9923 25.409 73.9604 25.409C70.9124 25.409 68.9806 23.3734 68.9806 20.0674V20.0529H83.9484V18.3638C83.9484 10.8277 79.4266 7.10298 73.6169 7.10298C67.149 7.10298 62.9563 11.7372 62.9563 18.5804C62.9563 25.6112 67.0918 30 73.8602 30ZM68.9806 16.2416C69.1094 13.7151 71.0126 11.6939 73.7171 11.6939C76.3644 11.6939 78.196 13.5996 78.2103 16.2416H68.9806Z" fill="white"/>
<path d="M94.194 29.9856C97.4423 29.9856 99.5458 28.5563 100.619 26.4918H100.791V29.5669H106.572V14.6102C106.572 9.32627 102.136 7.10298 97.242 7.10298C91.9761 7.10298 88.5132 9.64389 87.6689 13.6862L93.3069 14.1482C93.7218 12.6756 95.024 11.5929 97.2134 11.5929C99.2882 11.5929 100.476 12.6468 100.476 14.4658V14.5525C100.476 15.9817 98.9734 16.1694 95.1528 16.5448C90.8027 16.949 86.8962 18.4216 86.8962 23.3734C86.8962 27.7623 90.0014 29.9856 94.194 29.9856ZM95.9398 25.7411C94.0653 25.7411 92.7202 24.8604 92.7202 23.1713C92.7202 21.4389 94.1368 20.5871 96.2832 20.2839C97.614 20.0962 99.7891 19.7786 100.519 19.2878V21.641C100.519 23.9653 98.6157 25.7411 95.9398 25.7411Z" fill="white"/>
<path d="M122.992 7.39172H118.857V2.07892H112.761V7.39172H109.756V12.0115H112.761V23.5611C112.732 27.9066 115.666 30.0577 120.087 29.8701C121.661 29.8123 122.777 29.4947 123.393 29.2926L122.434 24.7161C122.133 24.7738 121.489 24.9182 120.917 24.9182C119.701 24.9182 118.857 24.4562 118.857 22.7526V12.0115H122.992V7.39172Z" fill="white"/>
<path d="M133.531 16.7469C133.545 13.8884 135.277 12.2137 137.767 12.2137C140.242 12.2137 141.702 13.8162 141.687 16.5448V29.5669H147.783V15.4475C147.798 10.2502 144.764 7.10298 140.185 7.10298C136.851 7.10298 134.618 8.69105 133.617 11.3041H133.359V0H127.435V29.5669H133.531V16.7469Z" fill="white"/>
<path d="M162.597 30C168.035 30 171.698 27.3292 172.557 23.2146L166.919 22.8393C166.303 24.5284 164.729 25.409 162.697 25.409C159.649 25.409 157.718 23.3734 157.718 20.0674V20.0529H172.685V18.3638C172.685 10.8277 168.164 7.10298 162.354 7.10298C155.886 7.10298 151.693 11.7372 151.693 18.5804C151.693 25.6112 155.829 30 162.597 30ZM157.718 16.2416C157.846 13.7151 159.75 11.6939 162.454 11.6939C165.101 11.6939 166.933 13.5996 166.947 16.2416H157.718Z" fill="white"/>
<path d="M176.663 29.5669H182.759V17.0212C182.759 14.2926 184.734 12.4158 187.424 12.4158C188.269 12.4158 189.428 12.5602 190 12.7478V7.29066C189.456 7.16073 188.698 7.07411 188.083 7.07411C185.621 7.07411 183.604 8.5178 182.802 11.2608H182.573V7.39172H176.663V29.5669Z" fill="white"/>
<path d="M8.36999 0.0458984C-0.0525966 0.0458984 8.0069e-06 8.41585 8.0069e-06 8.41585V13.1975C8.0069e-06 13.1975 1.91755 8.41585 7.2269 8.41585H7.74223H25.1099C33.6697 8.41585 33.4814 0.137141 33.4794 0.059384H33.459L33.4798 0.0463359H29.0194H18.1932L8.36999 0.0458984ZM8.36999 10.5087C-0.0525966 10.5087 8.0069e-06 18.8787 8.0069e-06 18.8787V23.6603C8.0069e-06 23.6603 1.91754 18.8787 7.2269 18.8787H7.74223H25.1099C33.6697 18.8787 33.4814 10.6 33.4794 10.5222H33.459L33.4798 10.5092H29.0194C29.0194 10.5092 21.6348 10.5092 18.1932 10.5092C14.7516 10.5091 8.36999 10.5088 8.36999 10.5088V10.5087Z" fill="white"/>
<path d="M8.36999 20.9648C-0.052589 20.9648 8.0035e-06 29.3348 8.0035e-06 29.3348H9.83471H10.044C18.6038 29.3348 18.4155 21.0561 18.4135 20.9783H18.3931L18.4139 20.9653H13.9535H8.3585L8.36999 20.9648Z" fill="white"/>
</svg>
