<svg width="55" height="55" viewBox="0 0 55 55" fill="none" xmlns="http://www.w3.org/2000/svg">
<circle cx="27.5" cy="27.5" r="27.5" fill="#FFB0B0"/>
<circle opacity="0.8" cx="27.5" cy="27.5" r="16.5" fill="#521015"/>
<path fill-rule="evenodd" clip-rule="evenodd" d="M9.25882 27.6964C9.11588 27.1629 9.50702 26.5946 10.1325 26.427L24.2883 22.634C24.9137 22.4664 25.5366 22.763 25.6796 23.2965C25.8225 23.8299 25.4314 24.3983 24.8059 24.5658L10.6501 28.3589C10.0247 28.5265 9.40176 28.2299 9.25882 27.6964Z" fill="#FFB0B0"/>
<path fill-rule="evenodd" clip-rule="evenodd" d="M15.2119 30.2413C15.069 29.7079 15.468 29.1374 16.103 28.9673L25.3024 26.5023C25.9375 26.3321 26.5682 26.6267 26.7111 27.1601C26.8541 27.6936 26.4551 28.264 25.82 28.4342L16.6207 30.8991C15.9856 31.0693 15.3549 30.7748 15.2119 30.2413Z" fill="#FFB0B0"/>
<path fill-rule="evenodd" clip-rule="evenodd" d="M22.9229 32.318C22.7799 31.7845 23.1446 31.2233 23.7373 31.0645L26.4204 30.3455C27.0132 30.1867 27.6096 30.4904 27.7525 31.0239C27.8955 31.5573 27.5308 32.1186 26.9381 32.2774L24.255 32.9963C23.6622 33.1551 23.0658 32.8514 22.9229 32.318Z" fill="#FFB0B0"/>
<path d="M38.3712 25.4224L32.6557 31.7755C32.125 32.3654 31.1517 32.1319 30.9463 31.3655L28.5355 22.3683C28.3302 21.6019 29.0564 20.913 29.8109 21.1585L37.9372 23.8027C38.6253 24.0266 38.8552 24.8845 38.3712 25.4224Z" fill="#FFB0B0"/>
</svg>
