<svg width="50" height="50" viewBox="0 0 50 50" fill="none" xmlns="http://www.w3.org/2000/svg">
<path d="M50 25C50 11.1929 38.8071 0 25 0C11.1929 0 0 11.1929 0 25C0 38.8071 11.1929 50 25 50C38.8071 50 50 38.8071 50 25Z" fill="#FB7680"/>
<path d="M19.0321 12.7717C11.999 12.7717 12.043 19.7608 12.043 19.7608V23.7536C12.043 23.7536 13.6442 19.7608 18.0776 19.7608H18.5079H33.0102C40.1579 19.7608 40.0006 12.8479 39.999 12.783H39.982L39.9994 12.7721H36.2748H27.2347L19.0321 12.7717ZM19.0321 21.5084C11.999 21.5084 12.043 28.4975 12.043 28.4975V32.4903C12.043 32.4903 13.6442 28.4975 18.0776 28.4975H18.5079H33.0102C40.1579 28.4975 40.0006 21.5846 39.999 21.5197H39.982L39.9994 21.5088H36.2748C36.2748 21.5088 30.1085 21.5089 27.2347 21.5088C24.3609 21.5087 19.0321 21.5085 19.0321 21.5085V21.5084Z" fill="#FFF8F9"/>
<path d="M19.0321 30.2393C11.9991 30.2393 12.043 37.2283 12.043 37.2283H20.2552H20.4299C27.5775 37.2283 27.4203 30.3154 27.4186 30.2505H27.4016L27.419 30.2396H23.6944H19.0225L19.0321 30.2393Z" fill="#FFF8F9"/>
</svg>
