<svg width="24" height="25" viewBox="0 0 24 25" fill="none" xmlns="http://www.w3.org/2000/svg">
<path fill-rule="evenodd" clip-rule="evenodd" d="M0 12.0264C0 5.39895 5.37258 0.0263672 12 0.0263672C18.6274 0.0263672 24 5.39895 24 12.0264C24 18.6538 18.6274 24.0264 12 24.0264C5.37258 24.0264 0 18.6538 0 12.0264ZM16.575 8.65137C17.1 8.57637 17.55 8.50137 18 8.27637C17.7 8.80137 17.25 9.25137 16.725 9.55137C16.875 13.0764 14.325 16.9014 9.75 16.9014C8.4 16.9014 7.125 16.4514 6 15.7764C7.275 15.9264 8.625 15.5514 9.525 14.8764C8.4 14.8764 7.5 14.1264 7.2 13.1514C7.575 13.2264 7.95 13.1514 8.325 13.0764C7.2 12.7764 6.375 11.7264 6.375 10.6014C6.75 10.7514 7.125 10.9014 7.5 10.9014C6.45 10.1514 6.075 8.72637 6.75 7.60137C8.025 9.10137 9.825 10.0764 11.85 10.1514C11.475 8.65137 12.675 7.15137 14.25 7.15137C14.925 7.15137 15.6 7.45137 16.05 7.90137C16.65 7.75137 17.175 7.60137 17.625 7.30137C17.475 7.90137 17.1 8.35137 16.575 8.65137Z" fill="#FFFFFB"/>
</svg>
