<svg width="27" height="27" viewBox="0 0 27 27" fill="none" xmlns="http://www.w3.org/2000/svg">
<path d="M12.9027 7.53387L14.9909 5.4457C15.4218 5.01445 15.9334 4.67231 16.4965 4.43883C17.0596 4.20535 17.6632 4.0851 18.2728 4.08496C18.8824 4.08482 19.486 4.20478 20.0493 4.438C20.6125 4.67122 21.1242 5.01312 21.5553 5.44417C21.9863 5.87522 22.3282 6.38697 22.5614 6.95019C22.7947 7.51342 22.9146 8.11707 22.9145 8.72667C22.9143 9.33626 22.7941 9.93986 22.5606 10.503C22.3271 11.0661 21.985 11.5777 21.5538 12.0085L18.5706 14.9916C18.1397 15.4226 17.6281 15.7644 17.0651 15.9976C16.5021 16.2308 15.8986 16.3508 15.2892 16.3508C14.6798 16.3508 14.0764 16.2308 13.5133 15.9976C12.9503 15.7644 12.4387 15.4226 12.0078 14.9916" stroke="#BFBABB" stroke-width="2" stroke-linecap="round" stroke-linejoin="round"/>
<path d="M14.0977 19.4664L12.0095 21.5546C11.5787 21.9858 11.0671 22.328 10.5039 22.5614C9.94084 22.7949 9.33724 22.9152 8.72764 22.9153C8.11805 22.9154 7.51439 22.7955 6.95117 22.5623C6.38795 22.329 5.8762 21.9871 5.44514 21.5561C5.01409 21.125 4.67219 20.6133 4.43898 20.0501C4.20576 19.4868 4.0858 18.8832 4.08594 18.2736C4.08608 17.664 4.20633 17.0604 4.4398 16.4973C4.67328 15.9342 5.01542 15.4226 5.44667 14.9917L8.42978 12.0086C8.8607 11.5777 9.37228 11.2359 9.93531 11.0027C10.4983 10.7694 11.1018 10.6494 11.7112 10.6494C12.3206 10.6494 12.9241 10.7694 13.4871 11.0027C14.0501 11.2359 14.5617 11.5777 14.9926 12.0086" stroke="#BFBABB" stroke-width="2" stroke-linecap="round" stroke-linejoin="round"/>
</svg>
