<svg width="30" height="30" viewBox="0 0 30 30" fill="none" xmlns="http://www.w3.org/2000/svg">
<rect width="30" height="30" rx="5" fill="white"/>
<path d="M15.0082 24.0164C19.9833 24.0164 24.0164 19.9833 24.0164 15.0082C24.0164 10.0331 19.9833 6 15.0082 6C10.0331 6 6 10.0331 6 15.0082C6 19.9833 10.0331 24.0164 15.0082 24.0164Z" fill="#11131C"/>
<path d="M21.0133 15.0081C21.0133 14.2811 20.4233 13.6911 19.6963 13.6911C19.3381 13.6911 19.022 13.8281 18.7902 14.0599C17.8947 13.4172 16.6514 12.9957 15.2818 12.9431L15.8823 10.13L17.8315 10.5409C17.8525 11.0361 18.2634 11.4364 18.7691 11.4364C19.2854 11.4364 19.7068 11.015 19.7068 10.4987C19.7068 9.98247 19.2854 9.56104 18.7691 9.56104C18.4004 9.56104 18.0843 9.77175 17.9368 10.0878L15.7559 9.62425C15.6927 9.61372 15.6294 9.62425 15.5768 9.65586C15.5241 9.68747 15.4925 9.74015 15.4714 9.80336L14.8076 12.9431C13.4064 12.9852 12.1526 13.3961 11.2465 14.0599C11.0147 13.8386 10.6881 13.6911 10.3404 13.6911C9.61345 13.6911 9.02344 14.2811 9.02344 15.0081C9.02344 15.5454 9.33951 15.9985 9.80309 16.2092C9.78202 16.3356 9.77149 16.4726 9.77149 16.6096C9.77149 18.6324 12.121 20.2655 15.0289 20.2655C17.9368 20.2655 20.2863 18.6324 20.2863 16.6096C20.2863 16.4726 20.2758 16.3462 20.2547 16.2197C20.6867 16.009 21.0133 15.5454 21.0133 15.0081ZM12.0051 15.9458C12.0051 15.4295 12.4265 15.0081 12.9428 15.0081C13.4591 15.0081 13.8805 15.4295 13.8805 15.9458C13.8805 16.4621 13.4591 16.8835 12.9428 16.8835C12.4265 16.8835 12.0051 16.4621 12.0051 15.9458ZM17.2414 18.4217C16.5988 19.0644 15.3766 19.1066 15.0184 19.1066C14.6601 19.1066 13.4274 19.0539 12.7953 18.4217C12.7005 18.3269 12.7005 18.1689 12.7953 18.074C12.8901 17.9792 13.0482 17.9792 13.143 18.074C13.5433 18.4744 14.4073 18.6219 15.0289 18.6219C15.6505 18.6219 16.5039 18.4744 16.9148 18.074C17.0097 17.9792 17.1677 17.9792 17.2625 18.074C17.3363 18.1794 17.3363 18.3269 17.2414 18.4217ZM17.0729 16.8835C16.5566 16.8835 16.1352 16.4621 16.1352 15.9458C16.1352 15.4295 16.5566 15.0081 17.0729 15.0081C17.5891 15.0081 18.0106 15.4295 18.0106 15.9458C18.0106 16.4621 17.5891 16.8835 17.0729 16.8835Z" fill="white"/>
</svg>
