<svg width="24" height="25" viewBox="0 0 24 25" fill="none" xmlns="http://www.w3.org/2000/svg">
<path fill-rule="evenodd" clip-rule="evenodd" d="M0 12.0518C0 5.42434 5.37258 0.0517578 12 0.0517578C18.6274 0.0517578 24 5.42434 24 12.0518C24 18.6792 18.6274 24.0518 12 24.0518C5.37258 24.0518 0 18.6792 0 12.0518ZM6.15 10.0268V18.0518H8.7V10.0268H6.15ZM6 7.47676C6 8.30176 6.6 8.90176 7.425 8.90176C8.25 8.90176 8.85 8.30176 8.85 7.47676C8.85 6.65176 8.25 6.05176 7.425 6.05176C6.675 6.05176 6 6.65176 6 7.47676ZM15.45 18.0518H17.85V13.1018C17.85 10.6268 16.35 9.80176 14.925 9.80176C13.65 9.80176 12.75 10.6268 12.525 11.1518V10.0268H10.125V18.0518H12.675V13.7768C12.675 12.6518 13.425 12.0518 14.175 12.0518C14.925 12.0518 15.45 12.4268 15.45 13.7018V18.0518Z" fill="#FFFFFB"/>
</svg>
